# xmcd CD database file
#
# Track frame offsets:
#	150
#	14672
#	29243
#	44116
#	57622
#	69302
#	83770
#	101253
#	116116
#	131844
#	144573
#	158116
#	170988
#	184635
#	199033
#	212263
#	225110
#	237036
#	249732
#	262678
#
# Disc length: 3690 seconds
#
# Revision: 0
# Processed by: cddbd v1.5.1PL2 Copyright (c) Steve Scherf et al.
# Submitted via: CDex 1.51
#
DISCID=1c0e6814
DTITLE=Billie Holiday - This Is Gold [Disc 2]
DYEAR=2005
DGENRE=Jazz
TTITLE0=As time goes by
TTITLE1=Lover come back to me
TTITLE2=Pennies from heaven
TTITLE3=Body and soul
TTITLE4=Me, myself and I
TTITLE5=Easy to love
TTITLE6=All of me
TTITLE7=Fine and mellow
TTITLE8=I'll be seeing you
TTITLE9=When you're smiling
TTITLE10=Miss Brown to you
TTITLE11=St. Louis Blues
TTITLE12=The blues are brewin'
TTITLE13=Gloomy Sunday
TTITLE14=Let's do it
TTITLE15=A sailboat in the moonlight
TTITLE16=Ghost of yesterday
TTITLE17=I can't get started
TTITLE18=A fine romance
TTITLE19=I wished on the moon
EXTD=YEAR: 2005
EXTT0=
EXTT1=
EXTT2=
EXTT3=
EXTT4=
EXTT5=
EXTT6=
EXTT7=
EXTT8=
EXTT9=
EXTT10=
EXTT11=
EXTT12=
EXTT13=
EXTT14=
EXTT15=
EXTT16=
EXTT17=
EXTT18=
EXTT19=
PLAYORDER=
